<?xml version="1.0" encoding="utf-8"?>
<!-- Generator: Adobe Illustrator 24.3.0, SVG Export Plug-In . SVG Version: 6.00 Build 0)  -->
<svg version="1.1" id="Camada_1" xmlns="http://www.w3.org/2000/svg" xmlns:xlink="http://www.w3.org/1999/xlink" x="0px" y="0px"
	 viewBox="0 0 62 46" style="enable-background:new 0 0 62 46;" xml:space="preserve">
<style type="text/css">
	.st0{fill:#326699;}
</style>
<path class="st0" d="M41.1,5.6H20.9c-0.9,0-1.7,0.8-1.7,1.7v29.1c0,0.7,0.5,1.3,1.1,1.6v1.8c0,0.3,0.3,0.6,0.6,0.6h20.2
	c0.3,0,0.6-0.3,0.6-0.6V38c0.7-0.2,1.1-0.8,1.1-1.6V7.3C42.8,6.4,42,5.6,41.1,5.6z M28.2,37V6.7h0.6V37H28.2z M20.3,7.3
	c0-0.3,0.3-0.6,0.6-0.6h6.2V37h-6.2c-0.3,0-0.6-0.3-0.6-0.6V7.3z M21.5,39.3v-1.1h19.1v1.1H21.5z M41.7,36.5c0,0.3-0.3,0.6-0.6,0.6
	H29.9V6.7h11.2c0.3,0,0.6,0.3,0.6,0.6V36.5z"/>
<path class="st0" d="M21.5,23.6H26c0.3,0,0.6-0.3,0.6-0.6v-6.7c0-0.3-0.3-0.6-0.6-0.6h-4.5c-0.3,0-0.6,0.3-0.6,0.6V23
	C20.9,23.3,21.2,23.6,21.5,23.6z M22,22.4v-3.9h3.4v3.9H22z M25.4,16.8v0.6H22v-0.6H25.4z"/>
<path class="st0" d="M23.2,20.2h1.1v1.1h-1.1V20.2z"/>
<path class="st0" d="M33.2,11.2h5.6c0.3,0,0.6-0.3,0.6-0.6V8.4c0-0.3-0.3-0.6-0.6-0.6h-5.6c-0.3,0-0.6,0.3-0.6,0.6v2.2
	C32.7,11,32.9,11.2,33.2,11.2z M33.8,9h4.5v1.1h-4.5V9z"/>
<path class="st0" d="M31,19.6h1.1v6.7H31V19.6z"/>
<path class="st0" d="M40.5,33.7h-7.8c-0.3,0-0.6,0.3-0.6,0.6v1.7c0,0.3,0.3,0.6,0.6,0.6h7.8c0.3,0,0.6-0.3,0.6-0.6v-1.7
	C41.1,33.9,40.8,33.7,40.5,33.7z M40,35.3h-6.7v-0.6H40V35.3z"/>
</svg>
